<svg width="699" height="808" viewBox="0 0 699 808" fill="none" xmlns="http://www.w3.org/2000/svg">
<path d="M651.38 615.48H47.7892C42.4111 615.474 37.2551 613.467 33.4522 609.899C29.6493 606.33 27.5101 601.492 27.5039 596.446V135.275C27.5101 130.229 29.6493 125.391 33.4522 121.822C37.2551 118.254 42.4111 116.247 47.7892 116.241H651.38C656.758 116.247 661.914 118.254 665.717 121.822C669.52 125.391 671.659 130.229 671.666 135.275V596.446C671.659 601.492 669.52 606.33 665.717 609.899C661.914 613.467 656.758 615.474 651.38 615.48Z" fill="#E6E6E6"/>
<path d="M592.734 602.641H61.4753C56.0972 602.635 50.9412 600.628 47.1383 597.06C43.3354 593.491 41.1962 588.653 41.1899 583.607V148.124C41.1962 143.078 43.3354 138.24 47.1383 134.671C50.9412 131.103 56.0972 129.096 61.4753 129.09H637.697C643.076 129.096 648.232 131.103 652.034 134.671C655.837 138.24 657.977 143.078 657.983 148.124V541.416C657.963 557.648 651.083 573.211 638.85 584.689C626.618 596.167 610.033 602.623 592.734 602.641Z" fill="white"/>
<path d="M446.745 227.56H204.148C203.46 227.561 202.779 227.435 202.143 227.189C201.507 226.942 200.929 226.581 200.443 226.125C199.956 225.669 199.57 225.128 199.306 224.531C199.043 223.935 198.907 223.296 198.907 222.651C198.907 222.006 199.043 221.367 199.306 220.77C199.57 220.174 199.956 219.633 200.443 219.177C200.929 218.721 201.507 218.359 202.143 218.113C202.779 217.867 203.46 217.741 204.148 217.742H446.745C448.131 217.744 449.46 218.262 450.439 219.183C451.418 220.103 451.968 221.35 451.968 222.651C451.968 223.951 451.418 225.199 450.439 226.119C449.46 227.04 448.131 227.558 446.745 227.56Z" fill="#FADA06"/>
<path d="M569.552 279.936H204.148C202.76 279.936 201.429 279.418 200.448 278.498C199.467 277.577 198.916 276.329 198.916 275.027C198.916 273.725 199.467 272.476 200.448 271.556C201.429 270.635 202.76 270.118 204.148 270.118H569.552C570.94 270.118 572.271 270.635 573.252 271.556C574.233 272.476 574.784 273.725 574.784 275.027C574.784 276.329 574.233 277.577 573.252 278.498C572.271 279.418 570.94 279.936 569.552 279.936Z" fill="#E6E6E6"/>
<path d="M569.552 332.311H204.148C203.46 332.312 202.779 332.186 202.143 331.94C201.507 331.694 200.929 331.332 200.443 330.877C199.956 330.421 199.57 329.879 199.306 329.283C199.043 328.687 198.907 328.048 198.907 327.402C198.907 326.757 199.043 326.118 199.306 325.522C199.57 324.926 199.956 324.384 200.443 323.928C200.929 323.472 201.507 323.111 202.143 322.865C202.779 322.618 203.46 322.492 204.148 322.493H569.552C570.938 322.496 572.267 323.014 573.246 323.934C574.225 324.854 574.775 326.102 574.775 327.402C574.775 328.703 574.225 329.95 573.246 330.871C572.267 331.791 570.938 332.309 569.552 332.311Z" fill="#E6E6E6"/>
<path d="M569.552 384.687H204.148C202.76 384.687 201.429 384.17 200.448 383.249C199.467 382.329 198.916 381.08 198.916 379.778C198.916 378.476 199.467 377.228 200.448 376.307C201.429 375.386 202.76 374.869 204.148 374.869H569.552C570.94 374.869 572.271 375.386 573.252 376.307C574.233 377.228 574.784 378.476 574.784 379.778C574.784 381.08 574.233 382.329 573.252 383.249C572.271 384.17 570.94 384.687 569.552 384.687Z" fill="#E6E6E6"/>
<path d="M569.552 437.063H204.148C202.76 437.063 201.429 436.546 200.448 435.625C199.467 434.704 198.916 433.456 198.916 432.154C198.916 430.852 199.467 429.603 200.448 428.683C201.429 427.762 202.76 427.245 204.148 427.245H569.552C570.94 427.245 572.271 427.762 573.252 428.683C574.233 429.603 574.784 430.852 574.784 432.154C574.784 433.456 574.233 434.704 573.252 435.625C572.271 436.546 570.94 437.063 569.552 437.063Z" fill="#E6E6E6"/>
<path d="M553.12 520.527C547.881 520.527 542.759 519.069 538.403 516.337C534.047 513.606 530.651 509.724 528.646 505.182C526.641 500.64 526.117 495.642 527.139 490.82C528.161 485.998 530.684 481.569 534.389 478.093C538.093 474.617 542.814 472.249 547.952 471.29C553.091 470.331 558.417 470.824 563.258 472.705C568.098 474.586 572.236 477.772 575.147 481.86C578.057 485.948 579.611 490.753 579.611 495.67C579.611 502.262 576.82 508.585 571.852 513.246C566.884 517.908 560.146 520.527 553.12 520.527Z" fill="#FADA06"/>
<path d="M568.023 494.489L560.513 484.203C560.179 483.746 559.666 483.432 559.085 483.33C558.504 483.228 557.904 483.347 557.417 483.661C556.93 483.974 556.595 484.456 556.487 485.001C556.378 485.546 556.505 486.109 556.839 486.566L561.696 493.218H542.668C541.975 493.218 541.31 493.476 540.82 493.936C540.33 494.396 540.055 495.019 540.055 495.67C540.055 496.32 540.33 496.944 540.82 497.404C541.31 497.863 541.975 498.122 542.668 498.122H561.935L556.839 505.101C556.505 505.558 556.378 506.121 556.487 506.666C556.595 507.211 556.93 507.693 557.417 508.006C557.905 508.32 558.504 508.438 559.085 508.337C559.666 508.235 560.18 507.921 560.513 507.464L568.023 497.178C568.268 496.767 568.396 496.304 568.396 495.834C568.396 495.363 568.268 494.9 568.023 494.489L568.023 494.489Z" fill="white"/>
<path d="M696.366 48.2316H2.80691C2.10265 48.2175 1.43226 47.9451 0.939496 47.4728C0.446729 47.0004 0.170776 46.3658 0.170776 45.7048C0.170776 45.0438 0.446729 44.4091 0.939496 43.9368C1.43226 43.4645 2.10265 43.1921 2.80691 43.178H696.366C697.07 43.1921 697.74 43.4645 698.233 43.9368C698.726 44.4091 699.002 45.0438 699.002 45.7048C699.002 46.3658 698.726 47.0004 698.233 47.4728C697.74 47.9451 697.07 48.2175 696.366 48.2316Z" fill="#CACACA"/>
<path d="M48.9023 30.2767C57.6182 30.2767 64.6839 23.499 64.6839 15.1383C64.6839 6.77766 57.6182 0 48.9023 0C40.1864 0 33.1207 6.77766 33.1207 15.1383C33.1207 23.499 40.1864 30.2767 48.9023 30.2767Z" fill="#3F3D56"/>
<path d="M103.42 30.2767C112.136 30.2767 119.202 23.499 119.202 15.1383C119.202 6.77766 112.136 0 103.42 0C94.7046 0 87.6389 6.77766 87.6389 15.1383C87.6389 23.499 94.7046 30.2767 103.42 30.2767Z" fill="#3F3D56"/>
<path d="M157.939 30.2767C166.654 30.2767 173.72 23.499 173.72 15.1383C173.72 6.77766 166.654 0 157.939 0C149.223 0 142.157 6.77766 142.157 15.1383C142.157 23.499 149.223 30.2767 157.939 30.2767Z" fill="#3F3D56"/>
<path d="M663.541 3.7522H624.814C624.047 3.76645 623.316 4.06261 622.778 4.57706C622.241 5.09151 621.939 5.78322 621.939 6.50368C621.939 7.22413 622.241 7.91586 622.778 8.43032C623.316 8.94477 624.047 9.24091 624.814 9.25516H663.541C664.309 9.24091 665.04 8.94477 665.577 8.43032C666.115 7.91586 666.416 7.22413 666.416 6.50368C666.416 5.78322 666.115 5.09151 665.577 4.57706C665.04 4.06261 664.309 3.76645 663.541 3.7522Z" fill="#3F3D56"/>
<path d="M663.541 14.0804H624.814C624.047 14.0947 623.316 14.3909 622.778 14.9053C622.241 15.4198 621.939 16.1115 621.939 16.8319C621.939 17.5524 622.241 18.2441 622.778 18.7586C623.316 19.273 624.047 19.5692 624.814 19.5834H663.541C664.309 19.5692 665.04 19.273 665.577 18.7586C666.115 18.2441 666.416 17.5524 666.416 16.8319C666.416 16.1115 666.115 15.4198 665.577 14.9053C665.04 14.3909 664.309 14.0947 663.541 14.0804Z" fill="#3F3D56"/>
<path d="M663.541 24.3951H624.814C624.047 24.4094 623.316 24.7055 622.778 25.22C622.241 25.7344 621.939 26.4262 621.939 27.1466C621.939 27.8671 622.241 28.5588 622.778 29.0732C623.316 29.5877 624.047 29.8838 624.814 29.8981H663.541C664.309 29.8838 665.04 29.5877 665.577 29.0732C666.115 28.5588 666.416 27.8671 666.416 27.1466C666.416 26.4262 666.115 25.7344 665.577 25.22C665.04 24.7055 664.309 24.4094 663.541 24.3951Z" fill="#3F3D56"/>
<path d="M89.6021 546.355C90.6637 545.522 91.5176 544.48 92.1037 543.303C92.6899 542.127 92.9939 540.844 92.9945 539.545C92.9952 538.247 92.6923 536.964 92.1073 535.787C91.5223 534.61 90.6693 533.567 89.6086 532.733L83.8651 486.165L65.6288 490.127L75.7633 534.27C74.3879 536.035 73.7503 538.212 73.9712 540.388C74.1922 542.565 75.2564 544.59 76.9622 546.08C78.6679 547.569 80.8968 548.42 83.2264 548.471C85.556 548.522 87.8245 547.769 89.6021 546.355Z" fill="#FFB6B6"/>
<path d="M87.7178 493.758L66.6053 506.117C66.6053 506.117 65.3203 513.36 63.8685 495.157C63.7169 493.257 65.1299 489.947 64.9745 487.996C64.7993 485.796 58.083 484.795 57.9061 482.569C57.7802 480.985 59.7219 479.575 59.5965 477.994C59.4065 475.601 59.2178 473.22 59.0326 470.878C58.8776 468.918 56.5646 467.676 56.4155 465.785C56.2651 463.878 58.2788 461.323 58.1368 459.516C57.0726 445.965 60.7527 411.873 60.7527 411.179C60.4683 409.439 59.6938 407.801 58.5092 406.435L59.6361 403.273L58.8909 397.339C57.9117 389.542 59.6585 381.657 63.8684 374.872L69.2303 371.578L93.9706 410.625C83.5596 444.413 76.7636 457.685 87.7178 493.758Z" fill="#FADA06"/>
<path d="M71.2437 784.896H84.015L90.0936 738.672H71.2437V784.896Z" fill="#FFB6B6"/>
<path d="M67.0761 776.688L87.4801 775.545V783.748L106.879 796.319C107.837 796.94 108.559 797.832 108.938 798.865C109.318 799.898 109.336 801.018 108.989 802.061C108.643 803.104 107.95 804.016 107.012 804.663C106.074 805.311 104.94 805.66 103.776 805.66H79.4842L75.2971 797.546L73.6622 805.66H64.5033L67.0761 776.688Z" fill="#2F2E41"/>
<path d="M142.984 784.896H155.755L161.832 738.672H142.984V784.896Z" fill="#FFB6B6"/>
<path d="M138.815 776.688L159.219 775.545V783.748L178.618 796.319C179.576 796.94 180.298 797.832 180.678 798.865C181.057 799.898 181.075 801.018 180.729 802.061C180.382 803.104 179.689 804.016 178.752 804.663C177.814 805.311 176.68 805.66 175.515 805.66H151.223L147.036 797.546L145.402 805.66H136.243L138.815 776.688Z" fill="#2F2E41"/>
<path d="M65.823 745.035H65.8727L68.3289 634.954C66.7394 632.077 65.9327 628.876 65.9806 625.635C66.0285 622.395 66.9297 619.216 68.6037 616.382L68.9553 615.785L68.0435 611.819C66.8725 606.724 67.4098 601.413 69.582 596.616L71.8734 526.508C63.6871 476.726 102.7 444.26 102.7 444.26H161.143L173.69 484.709C181.984 560.537 180.479 669.353 167.317 740.942L167.676 741.112C168.356 741.468 168.864 742.056 169.095 742.755C169.326 743.454 169.261 744.209 168.914 744.863C168.306 746.517 166.765 747.518 165.473 747.099L134.609 746.092C133.928 745.736 133.42 745.147 133.189 744.449C132.959 743.75 133.024 742.995 133.371 742.341C133.979 740.687 135.519 739.686 136.811 740.105L138.91 741.101L136.745 736.965C135.441 734.474 134.877 731.7 135.113 728.934C135.348 726.168 136.374 723.513 138.083 721.249L137.704 712.144C136.089 710.37 134.978 708.242 134.472 705.958C133.967 703.674 134.084 701.307 134.812 699.076L136.894 692.7L134.434 633.653L134.931 620.406L133.908 605.377L129.177 537.779L111.27 620.906L92.9783 745.872C93.4181 746.244 93.745 746.719 93.9258 747.248C94.1065 747.777 94.1347 748.342 94.0074 748.885C93.8188 749.605 93.3748 750.243 92.7485 750.694C92.1221 751.146 91.3505 751.384 90.5608 751.369H65.7338C65.2132 751.369 64.6997 751.255 64.2333 751.038C63.767 750.821 63.3604 750.506 63.0452 750.117C62.7299 749.728 62.5147 749.276 62.4161 748.797C62.3175 748.317 62.3382 747.822 62.4767 747.351C62.6862 746.674 63.1273 746.081 63.7321 745.662C64.3368 745.243 65.0716 745.023 65.823 745.035Z" fill="#2F2E41"/>
<path d="M207.845 528.26C208.719 527.252 209.346 526.077 209.683 524.818C210.02 523.558 210.059 522.245 209.797 520.969C209.535 519.694 208.977 518.489 208.165 517.437C207.352 516.386 206.303 515.515 205.093 514.885L190.024 470.189L172.923 477.331L191.811 518.862C190.818 520.84 190.633 523.091 191.291 525.189C191.949 527.286 193.404 529.085 195.38 530.243C197.356 531.402 199.717 531.84 202.014 531.474C204.312 531.108 206.386 529.965 207.845 528.26H207.845Z" fill="#FFB6B6"/>
<path d="M145.839 386.168C145.839 386.168 163.025 443.236 162.247 449.001C160.642 460.889 81.6664 497.433 75.7931 481.171L76.5294 475.825C73.5622 470.257 91.6651 448.158 92.5438 445.267C93.6604 441.571 88.6048 429.435 88.6048 429.435C88.6048 429.435 92.0993 418.356 91.541 411.498C90.9724 404.639 89.2872 405.696 83.1047 401.467C76.9222 397.247 66.8007 377.728 66.8007 377.728C66.8007 377.728 71.298 358.734 71.298 355.038C71.298 351.342 89.7731 345.046 92.0165 342.94C92.9932 341.718 93.8155 340.393 94.4668 338.992C94.9217 338.139 94.6322 336.159 95.1181 335.18C95.4283 334.539 96.5138 334.937 96.8344 334.277C97.1445 333.637 96.8757 332.9 97.1858 332.269C97.5891 331.435 98.5609 330.708 98.9435 329.922C100.701 326.313 102.2 323.374 102.665 323.374C103.782 323.374 139.781 328.127 139.781 328.127C141.74 330.971 143.998 333.622 146.522 336.043C150.461 339.729 168.894 348.703 168.894 348.703L145.839 386.168Z" fill="#FADA06"/>
<path d="M194.449 482.177C191.637 484.815 177.722 496.93 177.153 493.758C176.595 490.596 176.291 490.218 174.037 489.17C171.783 488.113 171.783 487.589 171.225 483.893C170.666 480.197 165.601 476.5 166.169 474.919C166.727 473.338 166.206 475.35 166.206 473.759C166.206 472.177 164.521 466.376 162.267 465.319C160.024 464.261 156.643 463.214 158.339 460.575C160.024 457.936 142.469 378.776 142.469 378.776L158.215 349.76L168.894 348.703C168.894 348.703 172.139 350.445 173.156 366.153C173.208 366.949 174.132 368.409 174.172 369.277C174.204 370 173.354 370.119 173.377 370.893C173.382 371.059 173.387 371.226 173.392 371.393C173.413 372.163 175.629 372.73 175.662 373.473C175.722 374.801 176.592 383.271 176.686 384.515C176.792 385.919 176.917 387.27 177.061 388.57C178.615 402.726 179.171 403.922 180.134 408.44C181.625 415.433 187.804 456.277 187.804 456.277C187.804 456.277 192.301 457.325 192.301 461.021C192.301 464.717 197.261 472.146 195.018 476.366C192.764 480.595 197.261 479.538 194.449 482.177Z" fill="#FADA06"/>
<path d="M117.91 322.29C132.641 322.29 144.582 311.085 144.582 297.263C144.582 283.441 132.641 272.236 117.91 272.236C103.18 272.236 91.2382 283.441 91.2382 297.263C91.2382 311.085 103.18 322.29 117.91 322.29Z" fill="#FFB8B8"/>
<path d="M60.4339 349.86C54.7897 347.983 49.1455 346.103 43.5014 344.219C44.4742 342.687 45.7131 341.319 47.1669 340.171C52.5407 335.96 59.9582 335.199 66.7809 333.779C73.6145 332.358 81.032 329.446 83.5298 323.318C86.1248 316.947 82.362 310.068 80.1778 303.575C76.9519 294.467 77.3436 284.572 81.2807 275.714C83.292 271.339 86.3506 267.458 90.2191 264.372C94.0876 261.286 98.662 259.077 103.587 257.919C113.47 255.859 124.639 259.217 130.716 266.806C134.631 265.704 138.841 265.985 142.55 267.597C146.259 269.208 149.211 272.038 150.849 275.552C151.62 277.199 151.963 278.994 151.85 280.789C151.737 282.585 151.172 284.33 150.2 285.88C148.092 288.873 143.583 290.405 140.188 288.742L142.156 284.054C136.068 285.992 132.111 296.32 132.933 302.306C133.744 308.282 137.463 313.518 141.237 318.398C145.01 323.278 149.033 328.209 150.654 334.042C152.99 342.433 149.833 351.605 143.994 358.332C138.155 365.058 129.927 369.624 121.406 372.982C115.028 375.498 108.4 377.415 101.619 378.704C102.83 376.493 104.03 374.281 105.241 372.069L90.8715 380.226C88.0926 380.48 85.2921 380.632 82.4917 380.683C74.339 380.815 66.0242 380.013 58.5633 376.959C51.0919 373.895 44.5286 368.346 41.8254 361.132C40.9588 358.799 40.5486 356.338 40.6145 353.868C47.2209 352.528 53.8273 351.192 60.4339 349.86Z" fill="#2F2E41"/>
<path d="M318.182 807.566H268.715L268.502 807.204C267.87 806.128 267.259 804.987 266.689 803.815C261.593 793.579 259.44 781.873 257.539 771.544L256.108 763.758C255.935 762.815 256.065 761.845 256.483 760.972C256.901 760.1 257.586 759.364 258.453 758.859C259.319 758.353 260.326 758.102 261.345 758.138C262.364 758.173 263.348 758.492 264.173 759.055C271.69 764.188 279.211 769.316 286.734 774.439C289.583 776.384 292.836 778.635 295.952 781.068C296.253 779.698 296.567 778.324 296.882 776.969C297.098 776.033 297.608 775.18 298.345 774.518C299.082 773.855 300.012 773.414 301.018 773.251C302.023 773.088 303.057 773.21 303.988 773.602C304.919 773.994 305.705 774.637 306.244 775.45L312.031 784.175C316.253 790.547 319.978 796.826 319.219 803.598C319.223 803.681 319.216 803.763 319.2 803.844C319.048 804.956 318.766 806.05 318.36 807.104L318.182 807.566Z" fill="#F0F0F0"/>
</svg>
