<svg width="803" height="809" viewBox="0 0 803 809" fill="none" xmlns="http://www.w3.org/2000/svg">
<path d="M773.741 97.1136H781.715C787.824 46.3493 740.82 7.79941 686.907 3.09326C708.08 8.35115 727.456 19.9599 742.814 36.5889C758.172 53.218 768.891 74.1943 773.741 97.1136Z" fill="#F2F2F2"/>
<path d="M649.651 248.573C645.138 248.514 640.815 248.349 636.68 248.079C640.971 248.795 645.324 248.961 649.651 248.573Z" fill="#F2F2F2"/>
<path d="M549.31 124.717C550.351 57.8494 599.578 3.43174 661.365 3.43174C669.851 2.45649 678.402 2.3432 686.907 3.09333C670.036 -1.05074 652.519 -1.03077 635.655 3.15176C618.792 7.33429 603.015 15.5721 589.494 27.2542C575.973 38.9363 565.055 53.7631 557.55 70.635C550.045 87.5069 546.145 105.991 546.14 124.717C546.14 188.121 548.236 242.215 636.68 248.079C591.871 240.713 548.493 177.222 549.31 124.717Z" fill="#F2F2F2"/>
<path d="M772.42 126.67C752.165 164.174 672.529 191.679 661.365 246.003C657.567 247.353 653.635 248.215 649.651 248.573C653.321 248.622 657.106 248.606 661.04 248.508C723.972 248.508 775.592 194.525 776.567 126.67L772.42 126.67Z" fill="#F2F2F2"/>
<path d="M670.408 215.856C655.68 181.274 649.231 144.004 653.748 103.173C653.05 98.4233 655.496 93.6632 659.216 92.5327L725.894 72.3694C729.616 71.2497 733.2 74.1862 733.906 78.9336L750.566 191.616C751.264 196.366 748.818 201.126 745.098 202.257L678.42 222.42C674.699 223.54 671.115 220.603 670.408 215.856Z" fill="#F2F2F2"/>
<path d="M701.989 84.8351C702.95 76.7842 698.696 69.5538 692.487 68.6855C686.278 67.8172 680.466 73.6399 679.505 81.6907C678.544 89.7416 682.798 96.972 689.007 97.8402C695.215 98.7085 701.028 92.8859 701.989 84.8351Z" fill="#F2F2F2"/>
<path d="M580.055 160.751C565.327 126.169 558.878 88.8995 563.395 48.0687C562.697 43.3188 565.143 38.5587 568.863 37.4282L635.541 17.265C639.262 16.1452 642.846 19.0817 643.553 23.8291L660.213 136.512C660.911 141.262 658.464 146.022 654.744 147.152L588.067 167.315C584.345 168.435 580.761 165.499 580.055 160.751Z" fill="#F2F2F2"/>
<path d="M611.635 29.7306C612.596 21.6797 608.342 14.4493 602.134 13.581C595.925 12.7127 590.113 18.5354 589.152 26.5862C588.191 34.6371 592.445 41.8675 598.653 42.7358C604.862 43.604 610.674 37.7814 611.635 29.7306Z" fill="#F2F2F2"/>
<path d="M671.318 535.133H0V537.496H671.318V535.133Z" fill="#3F3D56"/>
<path d="M273.068 256.121C272.276 253.121 283.348 280.617 280.714 280.948C268.718 282.438 242.137 289.153 233.781 292.771C233.405 292.723 233.029 292.676 232.664 292.617C231.767 292.511 230.893 292.357 230.03 292.18C210.575 288.195 195.857 270.899 195.458 250.02C195.436 249.725 195.436 249.417 195.436 249.122C195.433 247.68 195.504 246.24 195.646 244.807C195.829 242.85 196.144 240.909 196.587 239.002L196.543 238.99C188.796 231.116 192.061 216.515 201.932 210.356C206.221 207.686 210.978 206.015 215.898 205.449C217.232 205.293 218.573 205.214 219.915 205.213H232.52C235.128 204.605 237.772 204.19 240.432 203.972H240.454C265.83 201.879 285.838 218.62 283.968 238.99C283.957 239.014 283.935 239.037 283.924 239.061C283.381 239.936 282.905 240.763 282.485 241.555C282.075 242.3 281.732 243.01 281.434 243.683C279.121 248.885 285.066 255.431 281.124 256.653C275.881 258.278 294.914 311.687 274.16 311.687C284.255 314.793 275.253 264.397 273.068 256.121Z" fill="#2F2E41"/>
<path d="M388.857 772.365L405.223 772.215L412.466 702.299L388.314 702.518L388.857 772.365Z" fill="#FFB6B6"/>
<path d="M441.278 800.533C441.292 802.633 440.537 804.653 439.177 806.151C437.817 807.648 435.964 808.501 434.024 808.522L401.485 808.816L395.789 796.318L393.697 808.879L381.42 809L384.52 764.199L388.791 763.891L406.214 762.591L411.835 762.184L411.934 774.86L438.072 794.049C439.051 794.768 439.854 795.734 440.412 796.863C440.971 797.993 441.268 799.252 441.278 800.533Z" fill="#2F2E41"/>
<path d="M409.602 737.299C403.092 736.447 386.664 734.934 386.664 734.934C386.664 734.934 378.909 717.413 380.165 711.963C381.4 706.489 384.48 705.378 381.618 702.517C374.649 674.639 375.764 629.359 375.764 629.359C375.764 629.359 338.255 609.698 300.277 586.939C263.15 564.678 225.576 539.46 222.179 526.751C219.937 517.661 218.431 508.376 217.679 499.003C217.111 492.856 216.761 486.826 216.543 481.423C216.03 469.057 216.237 459.918 216.237 459.918L263.565 459.067L294.914 458.286H298.19V464.198L306.426 479.354C306.426 479.354 320.658 497.265 318.987 498.932C316.966 500.954 317.578 502.751 324.754 504.217C326.795 504.604 328.874 504.696 330.937 504.489C342.526 503.531 347.375 510.708 347.659 512.28C349.604 523.381 369.101 547.499 387.363 568.082H387.374C404.228 587.093 420.022 603.077 420.022 603.077L420.918 623.471L425.123 718.82C425.123 718.82 417.237 714.044 424.282 724.341C431.327 734.65 416.112 738.138 409.602 737.299Z" fill="#2F2E41"/>
<path d="M587.163 515.59L593.844 499.416L538.113 463.208L528.252 487.074L587.163 515.59Z" fill="#FFB6B6"/>
<path d="M632.632 475.706C634.402 476.565 635.785 478.149 636.478 480.111C637.171 482.072 637.116 484.251 636.327 486.169L623.04 518.319L610.171 518.728L619.855 526.012L614.849 538.147L578.498 516.462L580.016 512.129L586.17 494.439L588.166 488.737L598.857 493.912L625.851 476.165C626.862 475.501 628.008 475.112 629.189 475.032C630.37 474.952 631.552 475.183 632.632 475.706Z" fill="#2F2E41"/>
<path d="M558.496 476.446C558.458 476.538 558.412 476.622 558.374 476.698C555.329 482.747 550.331 496.744 550.02 497.607C550.012 497.622 550.007 497.64 550.005 497.657C550.005 497.657 533.517 496.738 529.303 493.466C525.081 490.168 531.47 495.381 521.735 488.487C516.7 484.903 499.458 479.307 484.014 474.735C469.645 470.482 456.842 467.137 456.842 467.137C456.842 467.137 445.525 478.286 429.128 493.693L429.12 493.701C413.891 507.98 394.266 525.934 375.247 542.012C334.529 554.975 291.553 566.207 280.81 559.896C273.258 555.238 266.095 549.877 259.403 543.872L270.466 512.485L299.723 479.322L330.52 465.777L342.568 460.475L359.438 453.065L450.774 412.898L551.922 450.819C551.922 450.819 544.877 456.981 556.342 453.731C567.653 450.532 561.677 469.961 558.496 476.446Z" fill="#2F2E41"/>
<path d="M239.208 293.953H271.976L277.135 306.279L299.08 316.862C301.934 318.241 304.448 320.326 306.421 322.95C308.394 325.574 309.769 328.662 310.436 331.967C318.338 371.066 308.343 379.189 308.021 392.08C306.929 435.824 301.3 444.525 301.93 455.323C302.118 458.555 303.941 471.333 309.804 470.13C315.667 468.927 312.506 473.978 313.894 475.942C315.093 477.639 321.398 475.387 317.44 481.024C313.482 486.661 330.403 502.03 320.036 502.03C300.375 502.03 261.053 512.67 245.761 512.67C230.469 512.67 218.652 517.578 211.901 517.399C207.786 517.29 209.072 496.522 210.717 478.536C211.09 474.464 218.315 474.57 211.831 467.019C205.347 459.469 212.979 455.545 212.993 453.557C213.008 451.446 216.669 446.128 212.1 437.429C207.532 428.73 211.743 432.33 211.545 429.598C210.015 408.548 207.824 381.708 207.824 381.708L198.165 352.282C195.696 344.761 196.022 336.495 199.075 329.229C202.128 321.963 207.669 316.265 214.529 313.336L225.86 308.498L239.208 293.953Z" fill="#FADA06"/>
<path d="M469.345 283.099C468.616 284.57 467.602 285.851 466.371 286.856C465.14 287.86 463.722 288.563 462.216 288.916C460.709 289.268 459.15 289.263 457.646 288.899C456.141 288.536 454.728 287.823 453.503 286.81L407.343 315.096L396.975 303.2L452.028 270.038C453.756 267.933 456.138 266.588 458.722 266.257C461.305 265.927 463.911 266.633 466.046 268.243C468.181 269.853 469.695 272.255 470.303 274.993C470.911 277.731 470.57 280.615 469.345 283.099Z" fill="#FFB6B6"/>
<path d="M261.505 349.868L260.802 358.977L352.699 357.698L444.173 302.037L430.8 279.759L350.4 316.348L293.257 317.602C285.215 317.779 277.519 321.174 271.655 327.133C265.791 333.092 262.175 341.192 261.505 349.868Z" fill="#FADA06"/>
<path d="M250.416 287.459C266.898 287.459 280.259 272.997 280.259 255.157C280.259 237.317 266.898 222.855 250.416 222.855C233.934 222.855 220.573 237.317 220.573 255.157C220.573 272.997 233.934 287.459 250.416 287.459Z" fill="#FFB6B6"/>
<path d="M283.968 240.751C283.47 241.035 282.983 241.295 282.485 241.555C281.965 241.827 281.445 242.099 280.925 242.347C270.931 247.254 262.798 247.798 257.862 240.751C257.73 237.044 256.96 233.395 255.593 229.993C255.835 233.795 254.909 237.577 252.96 240.751H243.022C232.785 248.105 227.529 248.873 234.633 273.015C236.614 279.742 244.491 318.886 241.392 324.691C240.496 324.585 230.893 292.357 230.03 292.179C210.575 288.195 195.857 270.899 195.458 250.02C195.48 248.956 195.547 247.892 195.646 246.852C196.928 244.766 198.336 242.776 199.863 240.893C199.855 235.312 201.04 229.805 203.326 224.803C206.218 218.465 210.727 213.156 216.318 209.504C219.651 207.755 223.126 206.342 226.699 205.284C226.787 205.26 226.865 205.236 226.953 205.213C228.049 204.893 229.167 204.598 230.284 204.35C232.593 203.822 234.929 203.439 237.278 203.203C237.444 203.191 237.61 203.179 237.765 203.179C238.704 203.182 239.624 203.455 240.432 203.971C240.443 203.971 240.443 203.983 240.454 203.983C241.032 204.348 241.536 204.835 241.937 205.414C242.644 206.388 243.026 207.592 243.022 208.83H254.088C254.498 208.83 254.907 208.842 255.317 208.866C262.703 209.139 269.729 212.386 275.019 217.97C280.31 223.555 283.486 231.076 283.924 239.061C283.957 239.628 283.968 240.184 283.968 240.751Z" fill="#2F2E41"/>
<path d="M209.716 246.663C220.575 246.663 229.377 237.135 229.377 225.382C229.377 213.629 220.575 204.102 209.716 204.102C198.858 204.102 190.055 213.629 190.055 225.382C190.055 237.135 198.858 246.663 209.716 246.663Z" fill="#2F2E41"/>
<path d="M233.746 208.831C234.122 220.577 224.944 230.111 214.085 230.111C208.871 230.111 203.87 227.869 200.183 223.878C196.496 219.887 194.424 214.475 194.424 208.831C194.424 197.078 207.575 196.956 214.085 187.55C223.295 174.244 233.24 192.99 233.746 208.831Z" fill="#2F2E41"/>
<path d="M259.453 541.731C256.4 492.699 265.337 446.577 290.158 404.311C290.782 401.531 292.4 399.132 294.656 397.641C296.913 396.15 299.624 395.688 302.194 396.358L398.077 421.457C400.646 422.133 402.863 423.884 404.24 426.326C405.618 428.769 406.044 431.703 405.425 434.485L374.721 571.905C374.096 574.685 372.478 577.084 370.222 578.575C367.965 580.066 365.255 580.528 362.684 579.858L266.801 554.759C264.232 554.083 262.016 552.332 260.638 549.89C259.26 547.447 258.834 544.513 259.453 541.731Z" fill="#F2F2F2"/>
<path opacity="0.2" d="M278.243 552.144C275.674 551.469 273.458 549.718 272.08 547.275C270.702 544.833 270.276 541.899 270.895 539.117C267.842 490.084 276.779 443.963 301.599 401.697C302.018 399.873 302.874 398.202 304.081 396.852L302.194 396.358C299.624 395.688 296.913 396.149 294.656 397.64C292.4 399.132 290.782 401.53 290.157 404.311C265.337 446.577 256.4 492.699 259.453 541.731C258.834 544.513 259.26 547.447 260.638 549.889C262.016 552.332 264.232 554.083 266.801 554.759L362.684 579.858C364.389 580.298 366.17 580.242 367.848 579.696C369.526 579.15 371.041 578.134 372.239 576.75L278.243 552.144Z" fill="black"/>
<path d="M365.056 494.295L300.76 477.668C299.738 477.403 298.855 476.709 298.305 475.739C297.755 474.769 297.583 473.603 297.828 472.496C298.072 471.389 298.712 470.433 299.608 469.837C300.503 469.241 301.581 469.054 302.603 469.317L366.9 485.944C367.92 486.212 368.8 486.906 369.348 487.875C369.896 488.844 370.066 490.009 369.822 491.113C369.579 492.218 368.94 493.174 368.047 493.77C367.153 494.366 366.078 494.555 365.056 494.295L365.056 494.295Z" fill="white"/>
<path d="M319.96 458.427L305.815 454.769C304.792 454.507 303.907 453.816 303.355 452.848C302.803 451.88 302.628 450.714 302.869 449.607C303.11 448.5 303.747 447.541 304.64 446.942C305.534 446.343 306.61 446.152 307.634 446.411L307.658 446.418L321.803 450.076C322.823 450.344 323.704 451.038 324.251 452.007C324.799 452.976 324.97 454.141 324.726 455.245C324.482 456.35 323.844 457.306 322.95 457.902C322.057 458.498 320.982 458.687 319.96 458.427V458.427Z" fill="white"/>
<path d="M356.953 531.009L292.656 514.382C291.636 514.115 290.755 513.42 290.207 512.451C289.659 511.482 289.488 510.317 289.732 509.212C289.976 508.107 290.615 507.151 291.508 506.555C292.402 505.959 293.478 505.77 294.5 506.031L358.796 522.658C359.304 522.786 359.783 523.022 360.206 523.351C360.63 523.68 360.989 524.097 361.264 524.576C361.539 525.056 361.723 525.59 361.807 526.147C361.891 526.704 361.873 527.273 361.753 527.822C361.634 528.372 361.415 528.89 361.11 529.348C360.805 529.806 360.42 530.194 359.977 530.491C359.533 530.787 359.04 530.986 358.525 531.076C358.01 531.166 357.484 531.145 356.977 531.015L356.953 531.009Z" fill="white"/>
<path d="M361.005 512.652L296.708 496.025C295.685 495.762 294.8 495.07 294.248 494.1C293.697 493.131 293.523 491.964 293.766 490.856C294.01 489.748 294.649 488.79 295.545 488.193C296.441 487.596 297.519 487.409 298.542 487.672L298.552 487.674L362.848 504.301C363.868 504.568 364.749 505.263 365.297 506.232C365.845 507.201 366.016 508.366 365.772 509.471C365.528 510.576 364.889 511.532 363.996 512.128C363.102 512.724 362.026 512.913 361.004 512.652L361.005 512.652Z" fill="white"/>
<path d="M347.412 426.422C356.546 426.422 363.951 418.408 363.951 408.522C363.951 398.636 356.546 390.621 347.412 390.621C338.279 390.621 330.874 398.636 330.874 408.522C330.874 418.408 338.279 426.422 347.412 426.422Z" fill="#3F3D56"/>
<path d="M264.025 551.979C262.676 551.172 261.505 550.057 260.593 548.712C259.681 547.367 259.05 545.824 258.743 544.189C258.437 542.554 258.462 540.866 258.817 539.243C259.172 537.619 259.849 536.098 260.801 534.786L235.263 484.463L246.386 473.395L276.314 533.404C278.236 535.302 279.448 537.898 279.72 540.698C279.993 543.499 279.306 546.31 277.792 548.6C276.277 550.889 274.039 552.498 271.502 553.12C268.964 553.743 266.304 553.337 264.025 551.979H264.025Z" fill="#FFB6B6"/>
<path d="M234.197 329.225L206.73 326.357C205.448 326.223 204.155 326.38 202.933 326.819C201.711 327.258 200.588 327.969 199.635 328.906C198.682 329.843 197.92 330.985 197.399 332.259C196.878 333.533 196.609 334.911 196.609 336.305V424.776L246.854 524.493L267.607 510.306L234.839 422.819L234.197 329.225Z" fill="#FADA06"/>
<path d="M451.039 322.045C457.408 273.388 474.953 230.259 507.304 194.452C508.445 191.871 510.486 189.886 512.978 188.931C515.471 187.977 518.211 188.131 520.598 189.361L609.625 235.353C612.01 236.589 613.844 238.798 614.726 241.496C615.608 244.193 615.465 247.159 614.329 249.743L558.065 377.336C556.923 379.917 554.883 381.903 552.39 382.857C549.898 383.812 547.158 383.657 544.77 382.428L455.743 336.435C453.359 335.2 451.524 332.991 450.642 330.293C449.761 327.595 449.903 324.629 451.039 322.045Z" fill="#F2F2F2"/>
<path opacity="0.2" d="M467.438 336.435C465.053 335.199 463.219 332.991 462.337 330.293C461.455 327.595 461.598 324.629 462.734 322.045C469.102 273.388 486.648 230.259 518.998 194.452C519.755 192.762 520.911 191.318 522.35 190.266L520.598 189.361C518.211 188.131 515.471 187.977 512.978 188.931C510.486 189.886 508.445 191.871 507.303 194.452C474.953 230.259 457.408 273.388 451.04 322.045C449.903 324.629 449.761 327.595 450.643 330.293C451.524 332.991 453.359 335.2 455.743 336.435L544.77 382.428C546.354 383.239 548.108 383.582 549.854 383.423C551.6 383.264 553.276 382.609 554.712 381.522L467.438 336.435Z" fill="black"/>
<path d="M563.418 299.24L503.68 268.598C502.73 268.111 501.997 267.234 501.643 266.162C501.29 265.09 501.344 263.909 501.794 262.88C502.245 261.851 503.055 261.058 504.045 260.675C505.036 260.293 506.127 260.352 507.077 260.839L566.815 291.48C567.762 291.971 568.49 292.847 568.841 293.917C569.192 294.988 569.137 296.165 568.688 297.192C568.238 298.218 567.431 299.01 566.443 299.394C565.456 299.778 564.368 299.722 563.418 299.239L563.418 299.24Z" fill="white"/>
<path d="M526.138 254.064L512.995 247.322C512.523 247.083 512.1 246.745 511.748 246.328C511.397 245.912 511.125 245.424 510.948 244.893C510.771 244.363 510.693 243.8 510.717 243.236C510.741 242.672 510.868 242.12 511.089 241.609C511.311 241.098 511.624 240.64 512.009 240.26C512.394 239.881 512.845 239.587 513.336 239.396C513.826 239.205 514.347 239.12 514.867 239.147C515.388 239.174 515.898 239.311 516.37 239.552L516.392 239.563L529.535 246.305C530.482 246.794 531.212 247.671 531.563 248.741C531.915 249.812 531.86 250.99 531.41 252.017C530.96 253.044 530.153 253.836 529.165 254.22C528.176 254.603 527.088 254.547 526.138 254.064Z" fill="white"/>
<path d="M548.483 333.35L488.746 302.709C487.798 302.219 487.069 301.343 486.717 300.272C486.366 299.201 486.421 298.023 486.87 296.996C487.32 295.969 488.128 295.177 489.116 294.794C490.104 294.41 491.193 294.466 492.143 294.95L551.88 325.591C552.352 325.831 552.775 326.169 553.125 326.586C553.476 327.003 553.748 327.49 553.924 328.021C554.101 328.551 554.179 329.114 554.155 329.677C554.131 330.24 554.004 330.793 553.783 331.303C553.561 331.813 553.249 332.271 552.864 332.651C552.479 333.03 552.028 333.324 551.538 333.515C551.048 333.707 550.528 333.791 550.008 333.765C549.488 333.739 548.977 333.602 548.506 333.362L548.483 333.35Z" fill="white"/>
<path d="M555.95 316.295L496.213 285.654C495.262 285.167 494.528 284.292 494.173 283.22C493.819 282.148 493.872 280.968 494.321 279.938C494.77 278.909 495.579 278.114 496.569 277.73C497.56 277.346 498.65 277.404 499.602 277.89L499.61 277.895L559.348 308.536C560.295 309.026 561.024 309.902 561.375 310.973C561.726 312.043 561.671 313.221 561.221 314.248C560.772 315.275 559.965 316.067 558.977 316.45C557.989 316.834 556.9 316.778 555.95 316.295L555.95 316.295Z" fill="white"/>
<path d="M562.52 229.272C571.654 229.272 579.059 221.258 579.059 211.371C579.059 201.485 571.654 193.471 562.52 193.471C553.387 193.471 545.982 201.485 545.982 211.371C545.982 221.258 553.387 229.272 562.52 229.272Z" fill="#3F3D56"/>
<path d="M705.235 385.08C687.299 342.965 679.445 297.576 684.946 247.85C684.096 242.066 687.075 236.269 691.606 234.892L772.809 210.336C777.341 208.973 781.706 212.549 782.566 218.331L802.855 355.56C803.705 361.345 800.726 367.142 796.196 368.518L714.993 393.074C710.461 394.438 706.096 390.862 705.235 385.08Z" fill="#F2F2F2"/>
<path opacity="0.2" d="M722.898 385.155C718.365 386.518 714.001 382.942 713.14 377.161C695.204 335.045 687.35 289.656 692.851 239.931C692.591 238.085 692.712 236.199 693.203 234.409L691.605 234.892C687.075 236.269 684.096 242.065 684.946 247.85C679.445 297.576 687.299 342.964 705.235 385.08C706.096 390.861 710.46 394.437 714.993 393.074L796.196 368.518C797.742 367.957 799.131 366.98 800.234 365.68C801.337 364.379 802.118 362.798 802.503 361.082L722.898 385.155Z" fill="black"/>
<path d="M770.776 291.261L716.389 307.909C714.586 308.458 712.847 307.038 712.503 304.737C712.308 303.679 712.466 302.58 712.948 301.636C713.431 300.692 714.207 299.963 715.138 299.58L769.526 282.932C771.329 282.388 773.066 283.813 773.406 286.114C773.599 287.17 773.441 288.266 772.959 289.207C772.478 290.149 771.705 290.877 770.776 291.261H770.776Z" fill="white"/>
<path d="M724.925 281.409L712.96 285.071C711.159 285.63 709.415 284.22 709.064 281.922C708.865 280.863 709.019 279.762 709.5 278.815C709.981 277.867 710.757 277.135 711.689 276.749L711.71 276.743L723.675 273.08C725.479 272.536 727.216 273.96 727.555 276.262C727.748 277.318 727.59 278.414 727.109 279.355C726.628 280.297 725.854 281.025 724.925 281.409Z" fill="white"/>
<path d="M776.272 327.875L721.885 344.523C720.082 345.068 718.345 343.643 718.005 341.341C717.812 340.286 717.97 339.19 718.451 338.248C718.933 337.306 719.706 336.579 720.635 336.195L775.022 319.547C776.823 318.988 778.568 320.398 778.919 322.696C779.118 323.755 778.963 324.856 778.482 325.804C778.001 326.751 777.226 327.483 776.293 327.869L776.272 327.875Z" fill="white"/>
<path d="M773.524 309.568L719.137 326.216C717.335 326.77 715.593 325.356 715.246 323.057C715.048 321.998 715.204 320.897 715.687 319.95C716.169 319.004 716.946 318.274 717.879 317.89L717.887 317.887L772.274 301.24C774.077 300.695 775.814 302.12 776.154 304.421C776.347 305.477 776.189 306.573 775.708 307.515C775.226 308.457 774.453 309.184 773.524 309.568L773.524 309.568Z" fill="white"/>
<path d="M743.696 225.518C744.866 215.713 739.685 206.907 732.124 205.85C724.563 204.793 717.485 211.884 716.314 221.688C715.144 231.493 720.324 240.298 727.886 241.356C735.447 242.413 742.525 235.322 743.696 225.518Z" fill="#3F3D56"/>
</svg>
