<svg width="803" height="805" viewBox="0 0 803 805" fill="none" xmlns="http://www.w3.org/2000/svg">
<path d="M202.56 772.325C201.674 772.366 200.797 772.133 200.048 771.659C199.298 771.184 198.713 770.491 198.37 769.672C198.028 768.854 197.946 767.95 198.135 767.083C198.323 766.217 198.774 765.429 199.425 764.827C199.534 764.393 199.612 764.082 199.721 763.648C198.873 761.494 197.402 759.642 195.494 758.33C193.587 757.018 191.332 756.305 189.017 756.284C186.702 756.262 184.433 756.932 182.502 758.208C180.57 759.484 179.063 761.307 178.175 763.445C173.048 775.446 166.413 787.87 169.713 801.088C147.916 754.89 155.328 697.425 187.541 657.918C196.445 653.013 203.662 644.298 205.541 634.179C201.134 635.673 195.64 632.088 198.953 627.446C200.389 625.672 201.839 623.912 203.275 622.138C186.536 604.31 166.591 632.329 185.017 656.391C178.989 663.948 173.768 672.115 169.439 680.758C170.439 671.58 169.246 662.296 165.957 653.67C162.625 645.631 156.379 638.86 150.878 631.91C144.19 623.441 130.426 627.348 129.526 638.095C135.698 640.123 136.5 649.039 129.44 650.259C131.289 670.251 144.349 688.624 162.338 697.392C155.695 716.031 153.101 735.872 154.729 755.593C151.554 732.545 126.814 726.952 109.523 717.792C108.422 717.086 107.14 716.716 105.833 716.726C104.526 716.737 103.249 717.128 102.16 717.851C101.071 718.574 100.216 719.599 99.6996 720.8C99.1829 722.001 99.0269 723.327 99.2506 724.615C101.637 725.585 103.921 726.79 106.07 728.212C107.076 728.889 107.849 729.861 108.282 730.994C108.715 732.127 108.787 733.367 108.487 734.542C108.188 735.718 107.533 736.772 106.611 737.561C105.689 738.349 104.546 738.833 103.338 738.946C112.054 760.519 134.589 775.005 157.733 774.924C159.957 784.589 163.18 793.997 167.349 802.996H201.699C201.823 802.614 201.933 802.22 202.044 801.839C198.865 802.038 195.673 801.848 192.539 801.272C200.951 791.312 207.457 786.23 202.561 772.326L202.56 772.325Z" fill="#F2F2F2"/>
<path d="M508.804 772.325C509.69 772.366 510.567 772.133 511.316 771.659C512.066 771.184 512.651 770.491 512.993 769.672C513.335 768.854 513.418 767.95 513.229 767.083C513.041 766.217 512.59 765.429 511.939 764.827C511.83 764.393 511.751 764.082 511.642 763.648C512.49 761.494 513.962 759.642 515.869 758.33C517.777 757.018 520.032 756.305 522.347 756.284C524.662 756.262 526.931 756.932 528.862 758.208C530.794 759.484 532.3 761.307 533.189 763.445C538.316 775.446 544.951 787.87 541.651 801.088C563.448 754.89 556.035 697.425 523.823 657.918C514.919 653.013 507.702 644.298 505.823 634.179C510.23 635.673 515.724 632.088 512.411 627.446C510.974 625.672 509.524 623.912 508.088 622.138C524.828 604.31 544.772 632.329 526.347 656.391C532.375 663.948 537.596 672.115 541.925 680.758C540.925 671.58 542.118 662.296 545.406 653.67C548.739 645.631 554.985 638.86 560.485 631.91C567.173 623.441 580.938 627.348 581.838 638.095C575.666 640.123 574.864 649.039 581.924 650.259C580.075 670.251 567.014 688.624 549.026 697.392C555.669 716.031 558.263 735.872 556.635 755.593C559.81 732.545 584.549 726.952 601.841 717.792C602.941 717.086 604.223 716.716 605.531 716.726C606.838 716.737 608.114 717.128 609.203 717.851C610.292 718.574 611.148 719.599 611.664 720.8C612.181 722.001 612.337 723.327 612.113 724.615C609.727 725.585 607.442 726.79 605.294 728.212C604.287 728.889 603.515 729.861 603.082 730.994C602.649 732.127 602.577 733.367 602.876 734.542C603.176 735.718 603.831 736.772 604.753 737.561C605.675 738.349 606.818 738.833 608.026 738.946C599.31 760.519 576.775 775.005 553.631 774.924C551.407 784.589 548.184 793.997 544.015 802.996H509.664C509.541 802.614 509.43 802.22 509.319 801.839C512.499 802.038 515.691 801.848 518.825 801.272C510.412 791.312 503.907 786.23 508.803 772.326L508.804 772.325Z" fill="#F2F2F2"/>
<path d="M521.54 777.426L506.747 780.79L486.725 725.33L508.559 720.363L521.54 777.426Z" fill="#FFB6B6"/>
<path d="M525.573 792.74L480.082 803.09L479.951 802.515C478.883 797.819 479.724 792.891 482.288 788.814C484.853 784.738 488.932 781.848 493.628 780.779L493.629 780.779L500.504 772.583L517.443 775.36L521.414 774.457L525.573 792.74Z" fill="#2F2E41"/>
<path d="M760.18 507.092L768.312 519.9L722.783 557.367L710.78 538.463L760.18 507.092Z" fill="#FFB6B6"/>
<path d="M773.253 498.156L798.264 537.541L797.766 537.857C793.7 540.439 788.776 541.3 784.075 540.251C779.375 539.202 775.284 536.329 772.702 532.263L772.701 532.262L762.675 528.535L759.609 511.645L757.426 508.207L773.253 498.156Z" fill="#2F2E41"/>
<path d="M288.623 370.163L284.969 348.984L340.518 323.9L352.514 302.66C352.126 300.796 352.262 298.862 352.905 297.07C353.548 295.278 354.674 293.699 356.158 292.507C357.642 291.315 359.427 290.556 361.315 290.315C363.203 290.073 365.121 290.359 366.858 291.139C368.594 291.919 370.081 293.164 371.154 294.737C372.227 296.309 372.845 298.148 372.939 300.049C373.033 301.95 372.599 303.841 371.686 305.511C370.773 307.181 369.416 308.567 367.766 309.515L348.032 340.025L288.623 370.163Z" fill="#A0616A"/>
<path d="M271.737 352.85L296.752 340.072L303.374 364.937L285.999 377.817L271.737 352.85Z" fill="#FADA06"/>
<path d="M215.605 775.5L230.73 775.499L237.925 717.156L215.601 717.158L215.605 775.5Z" fill="#A0616A"/>
<path d="M235.763 776.861V766.607L231.787 766.85L215.6 767.809L211.854 768.039L208.99 802.382L208.837 804.223H219.577L219.922 802.394L221.482 794.084L225.509 802.394L226.391 804.223H254.864C256.559 804.212 258.18 803.533 259.377 802.334C260.574 801.135 261.25 799.511 261.257 797.817C262.459 792.204 238.78 780.07 235.763 776.861Z" fill="#2F2E41"/>
<path d="M36.0643 543.964L32.5385 558.673L87.5933 579.274L92.7964 557.565L36.0643 543.964Z" fill="#A0616A"/>
<path d="M31.2374 563.25L41.2086 565.641L41.8995 561.717L44.741 545.753L45.3907 542.056L12.6635 531.264L10.9089 530.686L8.40479 541.13L10.1022 541.892L17.82 545.346L8.79949 547.325L6.81588 547.757L0.177128 575.446C-0.207494 577.096 0.0743579 578.831 0.961534 580.275C1.84871 581.718 3.26955 582.754 4.9155 583.156C10.0934 585.633 27.4132 565.436 31.2374 563.25Z" fill="#2F2E41"/>
<path d="M238.991 397.913L219.523 388.812L180.699 435.797L157.051 441.778C155.355 440.914 153.453 440.535 151.555 440.684C149.657 440.832 147.837 441.503 146.297 442.621C144.756 443.739 143.554 445.261 142.824 447.019C142.094 448.777 141.864 450.703 142.16 452.583C142.455 454.464 143.265 456.226 144.499 457.675C145.734 459.124 147.344 460.204 149.154 460.796C150.963 461.387 152.901 461.466 154.753 461.026C156.605 460.585 158.299 459.64 159.648 458.297L194.276 447.292L238.991 397.913Z" fill="#A0616A"/>
<path d="M515 223.978C510.874 223.978 506.84 222.755 503.408 220.462C499.977 218.169 497.303 214.91 495.724 211.098C494.144 207.285 493.731 203.09 494.536 199.042C495.341 194.994 497.329 191.276 500.247 188.358C503.165 185.44 506.882 183.453 510.93 182.648C514.977 181.843 519.173 182.256 522.985 183.835C526.798 185.415 530.056 188.089 532.349 191.52C534.642 194.952 535.866 198.986 535.866 203.113C535.859 208.645 533.659 213.948 529.747 217.86C525.836 221.772 520.532 223.972 515 223.978ZM515 184.641C511.347 184.641 507.776 185.725 504.739 187.754C501.701 189.784 499.334 192.669 497.936 196.044C496.538 199.419 496.172 203.133 496.885 206.716C497.597 210.299 499.357 213.591 501.94 216.174C504.523 218.757 507.814 220.516 511.397 221.229C514.98 221.942 518.694 221.576 522.069 220.178C525.444 218.78 528.329 216.412 530.358 213.375C532.388 210.337 533.471 206.766 533.471 203.113C533.466 198.215 531.518 193.52 528.055 190.058C524.592 186.595 519.897 184.647 515 184.641Z" fill="#E6E6E6"/>
<path d="M513.528 210.973C513.486 210.973 513.444 210.972 513.402 210.97C513.032 210.952 512.67 210.854 512.341 210.683C512.011 210.512 511.723 210.272 511.496 209.979L508.209 205.754C508.001 205.487 507.848 205.182 507.759 204.856C507.669 204.53 507.644 204.19 507.686 203.854C507.728 203.519 507.836 203.195 508.003 202.901C508.17 202.608 508.393 202.35 508.66 202.142L508.778 202.05C509.045 201.842 509.35 201.689 509.676 201.6C510.002 201.51 510.342 201.485 510.678 201.527C511.013 201.569 511.337 201.677 511.631 201.844C511.925 202.011 512.183 202.235 512.39 202.501C512.556 202.715 512.766 202.889 513.006 203.014C513.246 203.138 513.51 203.21 513.78 203.223C514.049 203.236 514.319 203.191 514.57 203.09C514.82 202.989 515.047 202.836 515.232 202.64L521.906 195.594C522.376 195.099 523.023 194.811 523.705 194.793C524.387 194.774 525.048 195.027 525.544 195.495L525.654 195.6C525.899 195.832 526.096 196.111 526.234 196.419C526.372 196.728 526.447 197.061 526.457 197.398C526.466 197.736 526.408 198.073 526.287 198.388C526.166 198.704 525.984 198.992 525.752 199.238L515.395 210.17C515.155 210.424 514.866 210.626 514.545 210.764C514.223 210.902 513.878 210.974 513.528 210.973Z" fill="#E6E6E6"/>
<path d="M410.841 476.603C406.714 476.603 402.68 475.38 399.249 473.087C395.818 470.794 393.144 467.535 391.564 463.722C389.985 459.91 389.572 455.714 390.377 451.667C391.182 447.619 393.169 443.901 396.087 440.983C399.005 438.065 402.723 436.078 406.771 435.273C410.818 434.468 415.013 434.881 418.826 436.46C422.638 438.039 425.897 440.714 428.19 444.145C430.483 447.576 431.706 451.611 431.706 455.737C431.7 461.27 429.5 466.573 425.588 470.485C421.677 474.397 416.373 476.597 410.841 476.603ZM410.841 437.266C407.188 437.266 403.617 438.35 400.579 440.379C397.542 442.409 395.175 445.294 393.777 448.669C392.379 452.044 392.013 455.758 392.725 459.341C393.438 462.924 395.197 466.215 397.78 468.799C400.364 471.382 403.655 473.141 407.238 473.854C410.821 474.567 414.535 474.201 417.91 472.803C421.285 471.405 424.169 469.037 426.199 466C428.228 462.962 429.312 459.391 429.312 455.737C429.306 450.84 427.358 446.145 423.896 442.682C420.433 439.22 415.738 437.272 410.841 437.266Z" fill="#E6E6E6"/>
<path d="M409.369 463.598C409.327 463.598 409.285 463.597 409.243 463.595C408.872 463.577 408.51 463.479 408.181 463.308C407.852 463.137 407.564 462.897 407.336 462.604L404.049 458.378C403.842 458.112 403.689 457.807 403.599 457.481C403.51 457.155 403.485 456.815 403.527 456.479C403.569 456.144 403.676 455.82 403.843 455.526C404.01 455.233 404.234 454.974 404.5 454.767L404.619 454.675C404.886 454.467 405.191 454.314 405.516 454.224C405.842 454.135 406.183 454.11 406.518 454.152C406.854 454.194 407.178 454.302 407.471 454.469C407.765 454.636 408.023 454.859 408.231 455.126C408.397 455.34 408.607 455.514 408.847 455.639C409.087 455.763 409.35 455.835 409.62 455.848C409.89 455.861 410.16 455.816 410.41 455.715C410.661 455.614 410.887 455.461 411.073 455.265L417.747 448.219C418.216 447.724 418.863 447.436 419.545 447.417C420.227 447.399 420.889 447.652 421.385 448.12L421.494 448.225C421.74 448.457 421.937 448.735 422.075 449.044C422.212 449.353 422.288 449.685 422.297 450.023C422.306 450.361 422.249 450.697 422.128 451.013C422.007 451.329 421.825 451.617 421.593 451.863L411.236 462.795C410.996 463.048 410.706 463.251 410.385 463.389C410.064 463.527 409.718 463.598 409.369 463.598Z" fill="#E6E6E6"/>
<path d="M182.17 195.244C178.043 195.244 174.009 194.02 170.578 191.727C167.146 189.435 164.472 186.176 162.893 182.363C161.314 178.55 160.9 174.355 161.705 170.307C162.51 166.26 164.498 162.542 167.416 159.624C170.334 156.706 174.052 154.718 178.099 153.913C182.146 153.108 186.342 153.521 190.154 155.101C193.967 156.68 197.226 159.354 199.518 162.786C201.811 166.217 203.035 170.251 203.035 174.378C203.028 179.91 200.828 185.214 196.917 189.126C193.005 193.037 187.701 195.238 182.17 195.244ZM182.17 155.907C178.516 155.907 174.945 156.99 171.908 159.02C168.87 161.049 166.503 163.934 165.105 167.309C163.707 170.685 163.341 174.399 164.054 177.982C164.767 181.565 166.526 184.856 169.109 187.439C171.692 190.022 174.983 191.782 178.566 192.494C182.149 193.207 185.863 192.841 189.238 191.443C192.613 190.045 195.498 187.678 197.527 184.64C199.557 181.603 200.64 178.031 200.64 174.378C200.635 169.481 198.687 164.786 195.224 161.323C191.761 157.86 187.067 155.912 182.17 155.907Z" fill="#E6E6E6"/>
<path d="M180.697 182.239C180.655 182.239 180.613 182.238 180.571 182.235C180.201 182.218 179.839 182.12 179.509 181.949C179.18 181.778 178.892 181.538 178.665 181.245L175.378 177.019C175.17 176.752 175.017 176.447 174.928 176.121C174.838 175.796 174.813 175.455 174.855 175.12C174.897 174.785 175.005 174.461 175.172 174.167C175.339 173.873 175.562 173.615 175.829 173.408L175.947 173.316C176.214 173.108 176.519 172.955 176.845 172.865C177.171 172.775 177.511 172.751 177.847 172.793C178.182 172.835 178.506 172.942 178.8 173.109C179.094 173.277 179.352 173.5 179.559 173.767C179.725 173.98 179.935 174.155 180.175 174.279C180.415 174.404 180.679 174.475 180.949 174.488C181.218 174.501 181.488 174.456 181.739 174.356C181.989 174.255 182.216 174.101 182.401 173.905L189.075 166.86C189.545 166.365 190.192 166.077 190.874 166.058C191.556 166.039 192.217 166.292 192.713 166.761L192.823 166.865C193.068 167.097 193.265 167.376 193.403 167.685C193.541 167.993 193.616 168.326 193.625 168.664C193.635 169.002 193.577 169.338 193.456 169.654C193.335 169.969 193.153 170.258 192.921 170.503L182.564 181.435C182.324 181.689 182.035 181.891 181.714 182.029C181.392 182.168 181.047 182.239 180.697 182.239Z" fill="#E6E6E6"/>
<path d="M349.215 554.184C300.832 554.184 245.227 500.491 196.03 526.002C47.0765 603.243 67.5808 473.993 24.7876 425.924L26.1925 423.106C73.4099 465.445 132.362 499.893 196.677 522.724C254.798 543.359 313.354 552.92 365.994 550.397L366.085 553.784C360.526 554.052 354.903 554.186 349.215 554.184Z" fill="#F2F2F2"/>
<path d="M282.845 191.159C288.431 191.159 292.959 185.088 292.959 177.597C292.959 170.107 288.431 164.035 282.845 164.035C277.26 164.035 272.732 170.107 272.732 177.597C272.732 185.088 277.26 191.159 282.845 191.159Z" fill="#E6E6E6"/>
<path d="M399.655 402.73C395.032 405.811 390.299 398.478 395.012 395.534C399.636 392.453 404.368 399.786 399.655 402.73Z" fill="#E6E6E6"/>
<path d="M373.042 155.872C380.315 155.872 386.211 149.976 386.211 142.702C386.211 135.428 380.315 129.532 373.042 129.532C365.768 129.532 359.872 135.428 359.872 142.702C359.872 149.976 365.768 155.872 373.042 155.872Z" fill="#FF6584"/>
<path opacity="0.3" d="M419.104 214.873L494.043 -4L411.755 212.252C411.348 212.766 411.07 213.369 410.942 214.011C410.815 214.654 410.843 215.317 411.023 215.947C411.203 216.577 411.531 217.155 411.979 217.632C412.428 218.11 412.983 218.474 413.6 218.694C414.217 218.914 414.878 218.984 415.527 218.897C416.177 218.811 416.796 218.571 417.334 218.197C417.872 217.824 418.313 217.327 418.621 216.749C418.929 216.171 419.095 215.528 419.104 214.873H419.104Z" fill="#F0F0F0"/>
<path d="M343.463 481.523C350.539 481.523 356.276 475.786 356.276 468.709C356.276 461.633 350.539 455.896 343.463 455.896C336.386 455.896 330.649 461.633 330.649 468.709C330.649 475.786 336.386 481.523 343.463 481.523Z" fill="#F2F2F2"/>
<path d="M219.364 473.597C219.364 473.597 187.421 494.398 195.867 508.22C196.159 508.696 157.712 559.476 157.712 559.476L85.133 554.869L82.5759 579.162L147.191 597.876C147.191 597.876 162.998 609.49 175.209 596.694C187.421 583.898 228.096 544.714 228.096 544.714L230.058 623.826L209.639 733.452L240.127 731.519L269.801 621.537L280.754 496.955L219.364 473.597Z" fill="#2F2E41"/>
<path d="M242.117 348.759L228.684 358.939L213.374 391.617L228.096 411.612C228.096 411.612 240.48 433.075 220.658 453.861C200.835 474.647 185.614 496.847 201.48 496.054C217.346 495.261 281.604 527.946 282.027 501.168C282.45 474.391 283.306 453.861 283.306 453.861L300.153 411.129C300.153 411.129 310.19 385.637 303.143 378.006C296.096 370.376 286.661 360.625 286.661 360.625L269.502 343.466H254.008L242.117 348.759Z" fill="#FADA06"/>
<path d="M267.192 285.972C297.327 303.121 272.588 348.367 241.891 332.255C211.757 315.107 236.496 269.861 267.192 285.972Z" fill="#A0616A"/>
<path d="M283.306 295.48C281.194 298.227 276.783 296.939 268.144 298.899C268.163 295.97 267.824 293.051 267.136 290.204C266.494 293.728 265.085 297.069 263.01 299.989C255.508 300.821 264.704 323.611 260.863 340.367C255.915 305.017 245.506 314.279 250.764 321.29C254.131 325.779 251.886 339.245 241.787 332.512C225.124 340.431 201.391 301.091 227.695 282.641C227.225 272.669 238.321 271.093 245.154 274.159C261.736 261.806 280.681 277.635 283.306 295.48Z" fill="#2F2E41"/>
<path d="M205.986 269.686C199.277 310.938 163.317 262.1 146.408 302.695C141.092 317.397 150.214 327.914 155.983 340.116C157.3 350.145 144.254 355.233 142.888 364.464C142.507 385.627 176.65 384.332 186.194 370.98C196.002 357.003 184.29 338.249 190.185 323.247C198.47 302.417 232.165 302.262 235.1 278.029C229.415 269.933 214.129 260.661 205.986 269.686Z" fill="#2F2E41"/>
<path d="M233.165 273.717C232.946 273.81 232.726 273.902 232.53 274.006H232.518C232.333 274.099 232.149 274.191 231.964 274.295C231.941 274.306 231.929 274.318 231.906 274.33C231.663 274.099 231.421 273.867 231.167 273.636C231.101 274.013 231.117 274.399 231.213 274.768L231.248 274.907C231.479 275.15 231.721 275.381 231.975 275.623C232.206 275.45 232.426 275.265 232.657 275.092C232.796 274.977 232.934 274.861 233.084 274.745C233.107 274.445 233.142 274.099 233.177 273.717L233.165 273.717ZM240.119 260.871C234.967 259.693 233.304 266.428 232.807 269.674C230.936 257.891 223.15 261.599 225.841 269.639C226.699 272.02 228.049 274.193 229.803 276.016C230.046 276.293 230.312 276.571 230.589 276.848C230.277 278.465 231.848 278.049 233.974 276.559C235.543 275.443 236.995 274.169 238.306 272.758C242.545 268.311 245.849 262.361 240.119 260.871ZM240.281 267.502C238.692 269.552 236.908 271.444 234.956 273.151C234.343 273.706 233.72 274.237 233.084 274.745C233.073 274.849 233.073 274.942 233.061 275.023C233.017 275.135 232.962 275.243 232.899 275.346C232.252 276.513 231.525 275.878 231.247 274.907C231.224 274.873 231.19 274.838 231.167 274.803C230.243 273.85 229.44 272.787 228.775 271.638C224.004 263.366 231.686 257.74 231.305 273.186C231.235 273.328 231.188 273.48 231.167 273.636C231.101 274.013 231.117 274.399 231.213 274.769L231.248 274.907C231.479 275.15 231.721 275.381 231.975 275.623C232.206 275.45 232.426 275.265 232.657 275.092C232.796 274.977 232.934 274.861 233.084 274.745C233.107 274.445 233.142 274.099 233.177 273.717V273.706C233.477 270.61 234.297 265.042 235.811 263.528C239.137 260.975 243.446 263.736 240.281 267.502ZM233.165 273.717C232.946 273.81 232.726 273.902 232.53 274.006H232.518C232.333 274.099 232.149 274.191 231.964 274.295C231.941 274.306 231.929 274.318 231.906 274.33C231.663 274.099 231.421 273.867 231.167 273.636C231.101 274.013 231.117 274.399 231.213 274.768L231.248 274.907C231.479 275.15 231.721 275.381 231.975 275.623C232.206 275.45 232.426 275.265 232.657 275.092C232.796 274.977 232.934 274.861 233.084 274.745C233.107 274.445 233.142 274.099 233.177 273.717L233.165 273.717Z" fill="#2F2E41"/>
<path d="M511.694 501.151L500.564 530.177L448.354 633.167L494.23 752.975L517.907 746.724L498.392 633.167L554.379 565.138L620.869 610.235C620.869 610.235 650.357 633.257 661.575 611.432C672.793 589.608 745.382 543.188 745.382 543.188L727.423 524.031L643.833 563.151L586.14 481.942L511.694 501.151Z" fill="#2F2E41"/>
<path d="M567.852 364.238L549.531 344.553L518.103 340.229L479.596 367.188L479.984 397.028L499.019 467.343C499.019 467.343 491.769 517.861 512.021 517.354C532.274 516.847 543.313 506.75 551.562 508.806C559.81 510.861 594.875 519.609 597.097 510.446C599.319 501.283 611.131 507.844 610.612 499.176C610.094 490.507 578.635 428.026 578.635 428.026L586.457 365.538L567.852 364.238Z" fill="#FADA06"/>
<path d="M683.853 273.627C684.017 275.26 683.821 276.908 683.279 278.457C682.737 280.005 681.862 281.416 680.716 282.59C679.569 283.763 678.18 284.672 676.644 285.25C675.109 285.829 673.466 286.064 671.83 285.938L629.699 366.068L618.387 348.703L661.451 273.078C661.844 270.344 663.226 267.849 665.335 266.065C667.444 264.282 670.135 263.334 672.896 263.402C675.657 263.47 678.298 264.548 680.317 266.433C682.337 268.317 683.595 270.877 683.853 273.627Z" fill="#FFB6B6"/>
<path d="M551.218 379.137C551.218 379.137 549.547 393.39 565.593 396.918C581.638 400.447 626.092 375.045 633.38 371.166C635.662 369.951 638.758 363.996 641.936 356.389C643.362 352.973 644.805 349.225 646.197 345.423C647.003 343.223 650.862 342.623 651.621 340.441C652.376 338.271 650.032 334.519 650.716 332.474C653.962 322.767 656.262 315.066 656.262 315.066L645.627 295.088C630.754 302.952 623.125 320.272 617.515 340.227L551.218 379.137Z" fill="#FADA06"/>
<path d="M363.827 292.028C364.077 293.65 364.679 295.197 365.592 296.56C366.504 297.924 367.704 299.071 369.108 299.92C370.511 300.77 372.084 301.301 373.715 301.477C375.346 301.653 376.996 301.469 378.548 300.939L439.391 367.974L445.997 348.331L385.379 285.89C384.314 283.341 382.352 281.271 379.864 280.073C377.375 278.874 374.533 278.63 371.877 279.386C369.22 280.143 366.934 281.848 365.45 284.178C363.966 286.508 363.389 289.301 363.827 292.028Z" fill="#FFB6B6"/>
<path d="M518.645 360.986C518.645 360.986 523.83 374.368 509.178 381.8C494.526 389.232 445.13 375.764 437.103 373.831C434.59 373.226 430.102 368.236 425.122 361.666C422.886 358.716 420.551 355.448 418.252 352.116C416.921 350.187 413.035 350.572 411.754 348.649C410.479 346.737 411.81 342.518 410.636 340.709C405.064 332.123 400.91 325.243 400.91 325.243L406.207 303.24C422.575 307.131 434.295 321.991 444.721 339.907L518.645 360.986Z" fill="#FADA06"/>
<path d="M534.444 335.222C550.958 335.222 564.346 321.834 564.346 305.319C564.346 288.804 550.958 275.416 534.444 275.416C517.929 275.416 504.542 288.804 504.542 305.319C504.542 321.834 517.929 335.222 534.444 335.222Z" fill="#FFB6B6"/>
<path d="M568.578 288.197C565.432 283.331 559.53 280.087 553.807 280.999C553.275 277.347 551.751 273.911 549.401 271.066C547.051 268.22 543.965 266.074 540.48 264.86C536.994 263.647 533.243 263.413 529.634 264.184C526.025 264.956 522.697 266.702 520.012 269.234C519.129 268.612 518.1 268.229 517.026 268.121C515.951 268.014 514.867 268.186 513.878 268.62C511.909 269.516 510.196 270.891 508.895 272.62C505.612 276.715 503.5 281.623 502.785 286.823C502.07 292.023 502.778 297.319 504.834 302.148C504.135 299.606 506.682 297.214 509.257 296.644C511.831 296.073 514.531 296.613 517.141 296.241C520.487 295.765 523.495 293.824 526.846 293.388C529.687 293.203 532.538 293.569 535.24 294.466C537.943 295.364 540.789 295.746 543.632 295.593C546.452 295.258 550.085 305.947 550.037 313.476C550.027 314.902 550.321 316.734 551.715 317.037C553.432 317.41 554.427 315.04 556.062 314.394C556.815 314.178 557.622 314.263 558.314 314.631C559.006 314.999 559.528 315.621 559.77 316.366C559.976 317.124 559.998 317.92 559.834 318.687C559.671 319.455 559.326 320.173 558.829 320.78C557.824 321.985 556.632 323.02 555.297 323.844L555.971 324.404C556.609 325.079 557.463 325.511 558.386 325.625C559.308 325.74 560.242 325.53 561.026 325.032C562.569 323.987 563.819 322.564 564.656 320.899C567.81 316.021 570.065 310.617 571.314 304.944C572.368 299.247 571.723 293.063 568.578 288.197Z" fill="#2F2E41"/>
<path d="M789.794 406.137C751.224 435.35 674.481 426.121 650.666 476.162C578.559 627.671 516.87 512.258 453.735 499.776L453.154 496.682C516.356 501.924 584.149 493.79 649.202 473.158C707.992 454.515 760.443 426.781 800.882 392.987L803 395.632C798.73 399.202 794.328 402.704 789.794 406.137Z" fill="#F2F2F2"/>
<path d="M626.723 802.958C625.804 805.679 101.328 805.679 100.337 802.965C101.254 800.237 625.731 800.237 626.723 802.958Z" fill="#CCCCCC"/>
</svg>
